# xmcd
#
# Track frame offsets: 
#        150
#        20390
#        40655
#        61920
#        83460
#        101880
#        122862
#        147545
#        168785
#        192717
#
# Disc length: 2692 seconds
#
# Revision: 3
# Processed by: cddbd v1.5.2PL0 Copyright (c) Steve Scherf et al.
# Submitted via: ExactAudioCopy v1.0b3
#
DISCID=840a820a
DTITLE=松田聖子 - Sweet Memories '93
DYEAR=1992
DGENRE=J-POP
TTITLE0=Sweet Memories (New Version)
TTITLE1=The Right Combination (Japanese New Version)
TTITLE2=Paradise
TTITLE3=きっと、また逢える…
TTITLE4=Wanna Know How (Album Version)
TTITLE5=抱いて… (New Version)
TTITLE6=You and Me and Time
TTITLE7=Paradise (English Version)
TTITLE8=涙が乾く瞬間
TTITLE9=Twinkle Star, Shining Star
EXTD=
EXTT0=
EXTT1=
EXTT2=
EXTT3=
EXTT4=
EXTT5=
EXTT6=
EXTT7=
EXTT8=
EXTT9=
PLAYORDER=
